<svg xmlns="http://www.w3.org/2000/svg" xmlns:xlink="http://www.w3.org/1999/xlink" width="43" height="300" viewBox="0 0 43 300">
    <symbol id="a">
        <path d="M24.86 39.71c-3.34-.26-4.74-1.91-7.35-3.5-1.44 7.54-3.19 14.79-8.39 18.54-1.61-11.39 2.35-20 4.19-29-3.13-5.28.38-15.91 7-13.29 8.14 3.22-7 19.64 3.15 21.69 10.65 2.14 15-18.48 8.39-25.19C22.31-.75 4.07 8.71 6.32 22.57c.54 3.39 4 4.42 1.39 9.1C1.61 30.31-.21 25.5 0 19.07.4 8.56 9.47 1.2 18.56.18c11.5-1.28 22.3 4.23 23.79 15.05 1.65 12.21-5.2 25.43-17.49 24.48z"/>
    </symbol>
    <use xlink:href="#a" fill="$color1"></use>
    <use xlink:href="#a" y="100" fill="$color2"></use>
    <use xlink:href="#a" y="200" fill="$color3"></use>
</svg>
