<svg xmlns="http://www.w3.org/2000/svg" xmlns:xlink="http://www.w3.org/1999/xlink" width="56" height="300" viewBox="0 0 56 300">
    <symbol id="a">
        <path d="M27.66 5c7.39 0 8.27 0 11.18.17A15.25 15.25 0 0144 6.1a8.55 8.55 0 013.18 2.07 8.55 8.55 0 012.07 3.18 15.2 15.2 0 011 5.14c.14 2.91.16 3.79.16 11.17s0 8.27-.16 11.18a15.25 15.25 0 01-1 5.14A9.17 9.17 0 0144 49.23a15.25 15.25 0 01-5.14 1c-2.91.14-3.79.16-11.18.16s-8.26 0-11.17-.16a15.2 15.2 0 01-5.14-1 8.55 8.55 0 01-3.18-2.07A8.55 8.55 0 016.1 44a15.25 15.25 0 01-.95-5.14C5 35.93 5 35.05 5 27.66s0-8.26.17-11.17a15.2 15.2 0 01.95-5.14 8.55 8.55 0 012.05-3.18 8.55 8.55 0 013.18-2.07 15.2 15.2 0 015.14-.95C19.4 5 20.28 5 27.66 5m0-5c-7.51 0-8.45 0-11.4.17a20.31 20.31 0 00-6.72 1.28 14.14 14.14 0 00-8.09 8.09 20.31 20.31 0 00-1.28 6.72C0 19.21 0 20.15 0 27.66s0 8.46.17 11.41a20.25 20.25 0 001.28 6.71 13.63 13.63 0 003.19 4.9 13.61 13.61 0 004.9 3.2 20.31 20.31 0 006.72 1.28c2.95.14 3.89.17 11.4.17s8.46 0 11.41-.17a20.25 20.25 0 006.71-1.28 14.25 14.25 0 008.1-8.1 20.25 20.25 0 001.28-6.71c.14-3 .17-3.89.17-11.41s0-8.45-.17-11.4a20.31 20.31 0 00-1.28-6.72 13.61 13.61 0 00-3.2-4.9 13.63 13.63 0 00-4.9-3.19A20.25 20.25 0 0039.07.17C36.12 0 35.18 0 27.66 0z"/>
        <path d="M27.66 13.46a14.21 14.21 0 1014.21 14.2 14.2 14.2 0 00-14.21-14.2zm0 23.43a9.23 9.23 0 119.23-9.23 9.22 9.22 0 01-9.23 9.23z"/>
        <circle cx="42.43" cy="12.9" r="3.32"/>
    </symbol>
    <use xlink:href="#a" fill="$color1"></use>
    <use xlink:href="#a" y="100" fill="$color2"></use>
    <use xlink:href="#a" y="200" fill="$color3"></use>
</svg>
